HIERARCHY
ROOT Hips
{
	OFFSET 0.000000 87.230942 0.000000
	CHANNELS 6 Xposition Yposition Zposition Xrotation Yrotation Zrotation
	JOINT Pelvis
	{
		OFFSET 0.000000 0.000000 0.000000
		CHANNELS 3 Xrotation Yrotation Zrotation
		JOINT LeftUpLeg
		{
			OFFSET 12.017000 -9.376404 -2.439400
			CHANNELS 3 Xrotation Yrotation Zrotation
			JOINT LeftLeg
			{
				OFFSET -0.007312 -32.846973 2.110600
				CHANNELS 3 Xrotation Yrotation Zrotation
				JOINT LeftFoot
				{
					OFFSET 0.007312 -32.065170 -0.570400
					CHANNELS 3 Xrotation Yrotation Zrotation
					JOINT LeftToeBase
					{
						OFFSET 0.728300 -11.045900 13.180700
						CHANNELS 3 Xrotation Yrotation Zrotation
						End Site
						{
							OFFSET 0.000000 17.212589 0.000000
						}
					}
				}
				JOINT LeftPantLeg
				{
					OFFSET 0.002788 -16.709013 -3.143600
					CHANNELS 3 Xrotation Yrotation Zrotation
					End Site
					{
						OFFSET -0.605125 24.528742 0.000000
					}
				}
			}
			JOINT Left_Butt
			{
				OFFSET -6.630234 1.326584 -3.183700
				CHANNELS 3 Xrotation Yrotation Zrotation
				End Site
				{
					OFFSET -0.498041 20.188049 0.000000
				}
			}
		}
		JOINT RightUpLeg
		{
			OFFSET -11.717000 -9.376404 -2.439400
			CHANNELS 3 Xrotation Yrotation Zrotation
			JOINT RightLeg
			{
				OFFSET -0.003241 -32.846912 2.110600
				CHANNELS 3 Xrotation Yrotation Zrotation
				JOINT RightFoot
				{
					OFFSET 0.003241 -32.065136 -0.570500
					CHANNELS 3 Xrotation Yrotation Zrotation
					JOINT RightToeBase
					{
						OFFSET -0.728300 -11.045901 13.180700
						CHANNELS 3 Xrotation Yrotation Zrotation
						End Site
						{
							OFFSET 0.000000 17.212593 0.000000
						}
					}
				}
				JOINT RightPantLeg
				{
					OFFSET 0.008142 -16.708982 -3.143700
					CHANNELS 3 Xrotation Yrotation Zrotation
					End Site
					{
						OFFSET 0.605088 24.528715 0.000000
					}
				}
			}
			JOINT Right_Butt
			{
				OFFSET 6.630732 1.326584 -3.183700
				CHANNELS 3 Xrotation Yrotation Zrotation
				End Site
				{
					OFFSET 0.498015 20.188240 0.000000
				}
			}
		}
	}
	JOINT Spine
	{
		OFFSET -0.062400 7.848404 3.918300
		CHANNELS 3 Xrotation Yrotation Zrotation
		JOINT Spine1
		{
			OFFSET -0.072800 11.422302 0.713400
			CHANNELS 3 Xrotation Yrotation Zrotation
			JOINT Spine2
			{
				OFFSET -0.083200 13.054001 -1.931600
				CHANNELS 3 Xrotation Yrotation Zrotation
				JOINT Neck
				{
					OFFSET -0.092200 14.121796 -5.138800
					CHANNELS 3 Xrotation Yrotation Zrotation
					JOINT Head
					{
						OFFSET 0.000200 10.447403 -0.842000
						CHANNELS 3 Xrotation Yrotation Zrotation
						JOINT Visor
						{
							OFFSET 0.457100 25.671204 16.550400
							CHANNELS 3 Xrotation Yrotation Zrotation
							End Site
							{
								OFFSET 0.000000 26.061493 0.000000
							}
						}
						JOINT HairMidA
						{
							OFFSET 0.459400 31.585403 8.437400
							CHANNELS 3 Xrotation Yrotation Zrotation
							End Site
							{
								OFFSET 0.000000 26.061493 0.000000
							}
						}
						JOINT HairMidB
						{
							OFFSET 0.464000 33.309204 -8.389700
							CHANNELS 3 Xrotation Yrotation Zrotation
							End Site
							{
								OFFSET 0.000000 26.061493 0.000000
							}
						}
						JOINT HairMidC
						{
							OFFSET 0.466600 27.991196 -17.375099
							CHANNELS 3 Xrotation Yrotation Zrotation
							End Site
							{
								OFFSET 0.000000 26.061493 0.000000
							}
						}
						JOINT HairMidD
						{
							OFFSET 0.467700 17.888092 -21.169500
							CHANNELS 3 Xrotation Yrotation Zrotation
							End Site
							{
								OFFSET 0.000000 26.061493 0.000000
							}
						}
						JOINT HairMidE
						{
							OFFSET 5.325700 3.514603 -14.369699
							CHANNELS 3 Xrotation Yrotation Zrotation
							End Site
							{
								OFFSET 0.000000 26.061493 0.000000
							}
						}
						JOINT HairMidF
						{
							OFFSET -4.394100 3.514603 -14.372400
							CHANNELS 3 Xrotation Yrotation Zrotation
							End Site
							{
								OFFSET 0.000000 26.061493 0.000000
							}
						}
						JOINT HairLeftA
						{
							OFFSET 15.319900 25.746506 2.623300
							CHANNELS 3 Xrotation Yrotation Zrotation
							End Site
							{
								OFFSET 0.000000 26.061493 0.000000
							}
						}
						JOINT HairLeftB
						{
							OFFSET 12.619500 29.289398 -8.731499
							CHANNELS 3 Xrotation Yrotation Zrotation
							End Site
							{
								OFFSET 0.000000 26.061493 0.000000
							}
						}
						JOINT HairLeftC
						{
							OFFSET 15.714800 15.959900 2.909800
							CHANNELS 3 Xrotation Yrotation Zrotation
							End Site
							{
								OFFSET 0.000000 26.061493 0.000000
							}
						}
						JOINT HairLeftD
						{
							OFFSET 16.101700 18.437408 -7.553200
							CHANNELS 3 Xrotation Yrotation Zrotation
							End Site
							{
								OFFSET 0.000000 26.061493 0.000000
							}
						}
						JOINT HairLeftE
						{
							OFFSET 9.731900 17.915009 -18.316799
							CHANNELS 3 Xrotation Yrotation Zrotation
							End Site
							{
								OFFSET 0.000000 26.061493 0.000000
							}
						}
						JOINT HairLeftF
						{
							OFFSET 11.204300 4.953598 -9.668100
							CHANNELS 3 Xrotation Yrotation Zrotation
							End Site
							{
								OFFSET 0.000000 26.061493 0.000000
							}
						}
						JOINT HairRightA
						{
							OFFSET -14.397900 25.746307 2.615100
							CHANNELS 3 Xrotation Yrotation Zrotation
							End Site
							{
								OFFSET 0.000000 26.061493 0.000000
							}
						}
						JOINT HairRightB
						{
							OFFSET -11.691200 29.289200 -8.738199
							CHANNELS 3 Xrotation Yrotation Zrotation
							End Site
							{
								OFFSET 0.000000 26.061493 0.000000
							}
						}
						JOINT HairRightC
						{
							OFFSET -14.792900 15.959702 2.901400
							CHANNELS 3 Xrotation Yrotation Zrotation
							End Site
							{
								OFFSET 0.000000 26.061493 0.000000
							}
						}
						JOINT HairRightD
						{
							OFFSET -15.174000 18.437195 -7.561900
							CHANNELS 3 Xrotation Yrotation Zrotation
							End Site
							{
								OFFSET 0.000000 26.061493 0.000000
							}
						}
						JOINT HairRightE
						{
							OFFSET -8.798200 17.914902 -18.322001
							CHANNELS 3 Xrotation Yrotation Zrotation
							End Site
							{
								OFFSET 0.000000 26.061493 0.000000
							}
						}
						JOINT HairRightF
						{
							OFFSET -10.275200 4.953506 -9.674099
							CHANNELS 3 Xrotation Yrotation Zrotation
							End Site
							{
								OFFSET 0.000000 26.061493 0.000000
							}
						}
					}
				}
				JOINT LeftShoulder
				{
					OFFSET 5.133500 7.341202 -1.867600
					CHANNELS 3 Xrotation Yrotation Zrotation
					JOINT LeftArm
					{
						OFFSET 8.072663 0.936867 -2.176600
						CHANNELS 3 Xrotation Yrotation Zrotation
						JOINT LeftForeArm
						{
							OFFSET 31.271999 0.000000 0.000000
							CHANNELS 3 Xrotation Yrotation Zrotation
							JOINT LeftHand
							{
								OFFSET 31.771030 0.000000 0.000000
								CHANNELS 3 Xrotation Yrotation Zrotation
								JOINT LeftHandThumb1
								{
									OFFSET 2.886520 -2.557846 4.416640
									CHANNELS 3 Xrotation Yrotation Zrotation
									JOINT LeftHandThumb2
									{
										OFFSET 2.371025 -1.368912 1.368911
										CHANNELS 3 Xrotation Yrotation Zrotation
										JOINT LeftHandThumb3
										{
											OFFSET 2.243378 -1.295212 1.295213
											CHANNELS 3 Xrotation Yrotation Zrotation
											End Site
											{
												OFFSET -0.332611 2.876945 0.020015
											}
										}
									}
								}
								JOINT LeftHandIndex1
								{
									OFFSET 8.568985 -0.641945 3.119977
									CHANNELS 3 Xrotation Yrotation Zrotation
									JOINT LeftHandIndex2
									{
										OFFSET 3.348503 0.000000 0.000000
										CHANNELS 3 Xrotation Yrotation Zrotation
										JOINT LeftHandIndex3
										{
											OFFSET 3.314552 0.000000 0.000000
											CHANNELS 3 Xrotation Yrotation Zrotation
											End Site
											{
												OFFSET -1.032898 3.075485 0.678796
											}
										}
									}
								}
								JOINT LeftHandMiddle1
								{
									OFFSET 8.124603 0.000000 0.000000
									CHANNELS 3 Xrotation Yrotation Zrotation
									JOINT LeftHandMiddle2
									{
										OFFSET 4.166275 0.000000 0.000000
										CHANNELS 3 Xrotation Yrotation Zrotation
										JOINT LeftHandMiddle3
										{
											OFFSET 3.018135 0.000000 0.000000
											CHANNELS 3 Xrotation Yrotation Zrotation
											End Site
											{
												OFFSET -1.032700 2.767982 0.617226
											}
										}
									}
								}
								JOINT LeftHandRing1
								{
									OFFSET 8.571686 -0.031357 -2.884048
									CHANNELS 3 Xrotation Yrotation Zrotation
									JOINT LeftHandRing2
									{
										OFFSET 3.671181 0.000000 0.000000
										CHANNELS 3 Xrotation Yrotation Zrotation
										JOINT LeftHandRing3
										{
											OFFSET 2.728851 0.000000 0.000000
											CHANNELS 3 Xrotation Yrotation Zrotation
											End Site
											{
												OFFSET -0.815796 2.539223 0.577389
											}
										}
									}
								}
								JOINT LeftHandPinky1
								{
									OFFSET 7.854515 -0.675232 -5.213020
									CHANNELS 3 Xrotation Yrotation Zrotation
									JOINT LeftHandPinky2
									{
										OFFSET 3.068596 0.000000 0.000000
										CHANNELS 3 Xrotation Yrotation Zrotation
										JOINT LeftHandPinky3
										{
											OFFSET 2.396042 0.000000 0.000000
											CHANNELS 3 Xrotation Yrotation Zrotation
											End Site
											{
												OFFSET -0.524597 2.267998 0.567429
											}
										}
									}
								}
							}
							JOINT LeftSleeve
							{
								OFFSET 19.684509 -0.200119 0.476146
								CHANNELS 3 Xrotation Yrotation Zrotation
								End Site
								{
									OFFSET -0.031017 25.731133 -0.002868
								}
							}
						}
					}
				}
				JOINT RightShoulder
				{
					OFFSET -4.395900 7.341202 -1.870200
					CHANNELS 3 Xrotation Yrotation Zrotation
					JOINT RightArm
					{
						OFFSET -8.071453 0.936867 -2.181100
						CHANNELS 3 Xrotation Yrotation Zrotation
						JOINT RightForeArm
						{
							OFFSET -31.272011 0.000000 0.000000
							CHANNELS 3 Xrotation Yrotation Zrotation
							JOINT RightHand
							{
								OFFSET -31.771019 0.000000 0.000000
								CHANNELS 3 Xrotation Yrotation Zrotation
								JOINT RightHandThumb1
								{
									OFFSET -2.886520 -2.557808 4.416626
									CHANNELS 3 Xrotation Yrotation Zrotation
									JOINT RightHandThumb2
									{
										OFFSET -2.371056 -1.368927 1.368928
										CHANNELS 3 Xrotation Yrotation Zrotation
										JOINT RightHandThumb3
										{
											OFFSET -2.243362 -1.295204 1.295206
											CHANNELS 3 Xrotation Yrotation Zrotation
											End Site
											{
												OFFSET 0.332642 2.876938 0.020047
											}
										}
									}
								}
								JOINT RightHandIndex1
								{
									OFFSET -8.568993 -0.641953 3.120017
									CHANNELS 3 Xrotation Yrotation Zrotation
									JOINT RightHandIndex2
									{
										OFFSET -3.348518 0.000000 0.000000
										CHANNELS 3 Xrotation Yrotation Zrotation
										JOINT RightHandIndex3
										{
											OFFSET -3.314552 0.000000 0.000000
											CHANNELS 3 Xrotation Yrotation Zrotation
											End Site
											{
												OFFSET 1.032898 3.075478 0.678804
											}
										}
									}
								}
								JOINT RightHandMiddle1
								{
									OFFSET -8.124588 0.000000 0.000000
									CHANNELS 3 Xrotation Yrotation Zrotation
									JOINT RightHandMiddle2
									{
										OFFSET -4.166275 0.000000 0.000000
										CHANNELS 3 Xrotation Yrotation Zrotation
										JOINT RightHandMiddle3
										{
											OFFSET -3.018097 0.000000 0.000000
											CHANNELS 3 Xrotation Yrotation Zrotation
											End Site
											{
												OFFSET 1.032700 2.767937 0.617197
											}
										}
									}
								}
								JOINT RightHandRing1
								{
									OFFSET -8.571747 -0.031349 -2.884061
									CHANNELS 3 Xrotation Yrotation Zrotation
									JOINT RightHandRing2
									{
										OFFSET -3.671204 0.000000 0.000000
										CHANNELS 3 Xrotation Yrotation Zrotation
										JOINT RightHandRing3
										{
											OFFSET -2.728874 0.000000 0.000000
											CHANNELS 3 Xrotation Yrotation Zrotation
											End Site
											{
												OFFSET 0.815804 2.539261 0.577413
											}
										}
									}
								}
								JOINT RightHandPinky1
								{
									OFFSET -7.854561 -0.675247 -5.212970
									CHANNELS 3 Xrotation Yrotation Zrotation
									JOINT RightHandPinky2
									{
										OFFSET -3.068550 0.000000 0.000000
										CHANNELS 3 Xrotation Yrotation Zrotation
										JOINT RightHandPinky3
										{
											OFFSET -2.395981 0.000000 0.000000
											CHANNELS 3 Xrotation Yrotation Zrotation
											End Site
											{
												OFFSET 0.524605 2.267952 0.567413
											}
										}
									}
								}
							}
							JOINT RightSleeve
							{
								OFFSET -19.684753 -0.200165 0.476065
								CHANNELS 3 Xrotation Yrotation Zrotation
								End Site
								{
									OFFSET 0.031342 25.731255 -0.002917
								}
							}
						}
					}
				}
				JOINT Hood
				{
					OFFSET 0.369700 14.447800 -5.317800
					CHANNELS 3 Xrotation Yrotation Zrotation
					JOINT Hood1
					{
						OFFSET 0.001700 -5.553802 -5.895100
						CHANNELS 3 Xrotation Yrotation Zrotation
						JOINT Hood2
						{
							OFFSET -0.000200 -8.380501 0.763600
							CHANNELS 3 Xrotation Yrotation Zrotation
							End Site
							{
								OFFSET 0.000000 8.415215 0.000000
							}
						}
					}
				}
				JOINT Left_Breast
				{
					OFFSET 5.682500 3.120102 3.188800
					CHANNELS 3 Xrotation Yrotation Zrotation
					End Site
					{
						OFFSET 0.000000 10.528564 0.000000
					}
				}
				JOINT Right_Breast
				{
					OFFSET -4.947600 3.120102 3.185900
					CHANNELS 3 Xrotation Yrotation Zrotation
					End Site
					{
						OFFSET 0.000000 10.528564 0.000000
					}
				}
				JOINT Whistle
				{
					OFFSET 0.368200 11.471298 0.095400
					CHANNELS 3 Xrotation Yrotation Zrotation
					JOINT Whistle1
					{
						OFFSET -0.002000 -6.349899 7.479800
						CHANNELS 3 Xrotation Yrotation Zrotation
						JOINT Whistle2
						{
							OFFSET -0.001300 -8.217598 4.717600
							CHANNELS 3 Xrotation Yrotation Zrotation
							End Site
							{
								OFFSET 0.000000 9.475479 0.000000
							}
						}
					}
				}
			}
		}
		JOINT Belly
		{
			OFFSET 0.212400 1.593002 3.163700
			CHANNELS 3 Xrotation Yrotation Zrotation
			End Site
			{
				OFFSET 0.000000 7.496635 0.000000
			}
		}
	}
	JOINT FitGrandmaFacialAnim_Joint
	{
		OFFSET 1.150000 -86.211197 -1.220100
		CHANNELS 3 Xrotation Yrotation Zrotation
		End Site
		{
			OFFSET 0.000000 31.666618 0.000000
		}
	}
}
MOTION
Frames: 4
Frame Time: 0.016667
-0.885248 85.510391 0.919739 2.912482 -28.986271 1.183370 0.000000 0.000001 -0.000000 -13.739456 18.790953 9.912543 19.176402 12.888662 -0.942692 -7.499492 -3.730887 -6.788166 0.000000 0.000000 -0.000000 -0.000001 0.000000 0.000001 -0.000000 -0.000000 0.000000 -5.243520 -1.938472 -9.980734 12.461241 9.974398 0.836530 -10.746719 -1.172398 7.471844 0.000000 0.000002 -0.000000 0.000000 0.000000 -0.000000 0.000000 0.000001 -0.000001 7.836032 -0.365839 -2.674395 1.099256 -0.880537 2.383669 1.108681 -0.590406 2.446524 -3.841324 18.018999 -6.496516 -6.333200 13.021595 0.301390 0.000000 -0.000000 -0.000000 0.000000 -0.000000 -0.000000 0.000000 -0.000000 -0.000000 0.000000 -0.000000 -0.000000 0.000000 -0.000000 -0.000000 0.000000 -0.000000 -0.000000 0.000000 -0.000000 -0.000000 0.000000 -0.000000 -0.000000 0.000000 -0.000000 -0.000000 0.000000 -0.000000 -0.000000 0.000000 -0.000000 -0.000000 0.000000 -0.000000 -0.000000 0.000000 -0.000000 -0.000000 0.000000 -0.000000 -0.000000 0.000000 -0.000000 -0.000000 0.000000 -0.000000 -0.000000 0.000000 -0.000000 -0.000000 0.000000 -0.000000 -0.000000 0.000000 -0.000000 -0.000000 -0.055832 -8.757997 -0.067357 -55.250811 0.329440 -41.449385 11.607086 -65.826023 13.026285 -50.191030 12.352952 4.610851 17.563623 -5.694015 -12.929225 10.852323 26.148385 8.654092 -0.000000 0.000002 -0.000001 13.978258 1.203558 -55.006037 0.372671 1.163833 -65.441873 0.000001 -0.000001 -0.000001 7.502560 1.175428 -63.755287 1.809497 1.478236 -64.569863 -0.000001 0.000000 -0.000003 8.574346 2.179114 -75.148999 -0.208031 1.014737 -57.856784 -0.000001 -0.000001 0.000004 10.030081 13.637075 -84.750251 0.878816 0.065131 -64.595490 -0.000001 -0.000000 0.000002 0.000001 0.000001 0.000000 4.849283 7.760131 5.560455 -0.933510 -2.176873 61.845635 11.299292 18.943475 -3.987555 -0.459213 6.620143 5.830255 15.788508 -2.734485 -17.205882 -2.198350 -31.113550 7.361195 0.000001 0.000002 0.000001 2.371235 -3.658862 8.486746 -2.131702 -2.469832 18.672221 0.000000 -0.000000 0.000003 -1.983661 -5.667154 13.658567 0.267053 -5.081400 26.987192 0.000001 0.000000 -0.000003 -3.231409 -8.564185 11.751476 4.036743 -4.043071 33.257178 0.000001 -0.000001 -0.000001 -6.483209 -11.360906 23.256434 10.728490 -2.555670 34.821261 -0.000002 -0.000000 -0.000001 0.000000 -0.000000 -0.000002 -0.000000 0.000001 -0.000001 -0.000000 0.000001 -0.000001 -0.000000 0.000001 -0.000001 -0.000000 0.000001 -0.000001 -0.000000 0.000001 -0.000001 -0.000001 0.000001 -0.000001 -0.000001 0.000001 -0.000000 -0.000001 0.000001 -0.000000 0.000001 -0.000002 0.000000 0.000000 0.000001 -0.000000 
-0.900932 85.506027 0.936631 2.996392 -28.997613 1.224459 0.000000 -0.000001 0.000000 -13.799820 18.779955 9.922216 19.175193 12.887345 -0.945504 -7.506490 -3.729359 -6.802788 -0.000000 0.000000 -0.000000 0.000000 0.000000 -0.000000 -0.000000 0.000001 -0.000001 -5.313304 -1.937963 -9.970612 12.474763 9.980592 0.834173 -10.767785 -1.161138 7.460281 0.000000 -0.000000 0.000000 0.000001 0.000002 -0.000001 0.000000 0.000002 -0.000002 7.836035 -0.365900 -2.674170 1.099092 -0.876629 2.383002 1.108493 -0.585947 2.445763 -3.845001 18.060113 -6.523147 -6.313228 13.058517 0.301026 0.000000 0.000000 0.000000 0.000000 0.000000 0.000000 0.000000 0.000000 0.000000 0.000000 0.000000 0.000000 0.000000 0.000000 0.000000 0.000000 0.000000 0.000000 0.000000 0.000000 0.000000 0.000000 0.000000 0.000000 0.000000 0.000000 0.000000 0.000000 0.000000 0.000000 0.000000 0.000000 0.000000 0.000000 0.000000 0.000000 0.000000 0.000000 0.000000 0.000000 0.000000 0.000000 0.000000 0.000000 0.000000 0.000000 0.000000 0.000000 0.000000 0.000000 0.000000 0.000000 0.000000 0.000000 0.000000 0.000000 0.000000 -0.070040 -8.744139 -0.065999 -54.884337 0.118808 -41.197611 11.633525 -65.908873 13.201894 -50.544349 12.176074 4.648555 17.563625 -5.694015 -12.929221 10.852317 26.148387 8.654095 0.000001 0.000002 -0.000000 13.978257 1.203558 -55.006037 0.372672 1.163833 -65.441866 0.000002 -0.000001 0.000000 7.502559 1.175428 -63.755281 1.809494 1.478238 -64.569863 0.000000 0.000003 0.000003 8.574348 2.179117 -75.148999 -0.208032 1.014740 -57.856791 0.000001 0.000000 -0.000001 10.030086 13.637075 -84.750244 0.878816 0.065131 -64.595496 0.000001 0.000001 0.000002 0.000003 0.000002 -0.000002 4.841090 7.792212 5.599184 -0.876145 -2.203286 61.799736 11.304727 18.977114 -3.997556 -0.474800 6.723938 5.694289 15.788512 -2.734485 -17.205885 -2.198346 -31.113554 7.361196 0.000000 0.000001 0.000002 2.371238 -3.658864 8.486780 -2.131699 -2.469825 18.672180 0.000000 0.000000 -0.000000 -1.983648 -5.667157 13.658579 0.267040 -5.081393 26.987174 -0.000000 -0.000000 0.000002 -3.231404 -8.564186 11.751471 4.036758 -4.043077 33.257195 0.000002 0.000000 -0.000004 -6.483201 -11.360917 23.256461 10.728490 -2.555671 34.821261 -0.000002 0.000000 -0.000002 0.000001 -0.000000 0.000000 0.000000 0.000000 -0.000000 0.000000 0.000000 -0.000000 0.000000 0.000000 -0.000000 0.000000 0.000000 -0.000000 0.000000 0.000000 -0.000000 0.000000 0.000000 -0.000000 0.000000 0.000000 0.000000 0.000000 0.000000 0.000000 0.000001 0.000000 -0.000000 0.000000 -0.000001 0.000000 
-0.919808 85.499268 0.955828 3.094657 -29.002278 1.267506 0.000000 0.000000 -0.000000 -13.880946 18.737769 9.941760 19.191238 12.889861 -0.950497 -7.518457 -3.712179 -6.825492 -0.000000 -0.000000 -0.000000 -0.000000 0.000000 0.000001 0.000001 0.000001 -0.000001 -5.413496 -1.945276 -9.968344 12.507094 10.010253 0.826406 -10.783977 -1.153019 7.454701 0.000000 -0.000001 0.000000 0.000000 0.000001 -0.000001 -0.000000 0.000001 -0.000000 7.836176 -0.363012 -2.674788 1.098787 -0.869315 2.381754 1.110462 -0.579787 2.444748 -3.800853 18.130558 -6.587808 -6.340685 13.102961 0.312260 0.000000 0.000000 -0.000000 0.000000 0.000000 -0.000000 0.000000 0.000000 -0.000000 0.000000 0.000000 -0.000000 0.000000 0.000000 -0.000000 0.000000 0.000000 -0.000000 0.000000 0.000000 -0.000000 0.000000 0.000000 -0.000000 0.000000 0.000000 -0.000000 0.000000 0.000000 -0.000000 0.000000 0.000000 -0.000000 0.000000 0.000000 -0.000000 0.000000 0.000000 -0.000000 0.000000 0.000000 -0.000000 0.000000 0.000000 -0.000000 0.000000 0.000000 -0.000000 0.000000 0.000000 -0.000000 0.000000 0.000000 -0.000000 0.000000 0.000000 -0.000000 -0.072283 -8.728851 -0.064796 -54.827575 0.180463 -41.050424 11.670614 -66.019099 13.220189 -50.602911 12.088246 4.574802 17.563623 -5.694017 -12.929223 10.852320 26.148387 8.654092 -0.000001 0.000001 -0.000001 13.978259 1.203557 -55.006041 0.372673 1.163833 -65.441873 -0.000001 -0.000001 -0.000003 7.502559 1.175424 -63.755287 1.809502 1.478238 -64.569863 -0.000001 0.000000 -0.000001 8.574346 2.179116 -75.148999 -0.208028 1.014740 -57.856784 0.000003 -0.000002 -0.000000 10.030082 13.637077 -84.750251 0.878814 0.065132 -64.595490 0.000003 -0.000001 -0.000000 0.000003 -0.000002 -0.000001 4.839188 7.844300 5.594995 -0.848530 -2.241857 61.787285 11.331124 18.903925 -3.971973 -0.529487 6.824013 5.581356 15.788510 -2.734485 -17.205883 -2.198347 -31.113554 7.361200 -0.000000 0.000002 0.000000 2.371246 -3.658860 8.486753 -2.131696 -2.469836 18.672219 -0.000001 0.000001 -0.000000 -1.983639 -5.667154 13.658581 0.267033 -5.081398 26.987175 0.000000 0.000000 -0.000005 -3.231394 -8.564186 11.751470 4.036754 -4.043070 33.257195 0.000001 0.000000 -0.000001 -6.483200 -11.360914 23.256446 10.728490 -2.555665 34.821237 0.000000 0.000001 -0.000003 -0.000000 0.000000 -0.000002 0.000000 0.000002 -0.000000 0.000000 0.000002 -0.000000 0.000000 0.000002 -0.000000 0.000000 0.000002 -0.000000 0.000000 0.000002 -0.000000 0.000000 0.000002 -0.000000 -0.000001 0.000002 -0.000000 -0.000001 0.000002 -0.000000 0.000001 0.000002 -0.000000 0.000000 0.000000 -0.000000 
-0.938019 85.492004 0.973954 3.192089 -28.999300 1.308526 0.000000 0.000001 -0.000000 -13.966564 18.676925 9.955972 19.223322 12.925924 -0.961850 -7.537081 -3.697210 -6.843707 -0.000000 -0.000000 0.000000 0.000000 0.000001 0.000000 -0.000000 0.000000 0.000000 -5.503138 -1.961801 -9.950073 12.537237 9.997125 0.821462 -10.807488 -1.150825 7.448778 0.000000 -0.000000 0.000000 0.000001 -0.000000 -0.000000 0.000000 -0.000003 -0.000001 7.831365 -0.350850 -2.671091 1.104963 -0.859948 2.374746 1.116791 -0.570574 2.437568 -3.760156 18.197036 -6.652758 -6.378133 13.164525 0.327757 0.000000 -0.000000 -0.000000 0.000000 -0.000000 -0.000000 0.000000 -0.000000 -0.000000 0.000000 -0.000000 -0.000000 0.000000 -0.000000 -0.000000 0.000000 -0.000000 -0.000000 0.000000 -0.000000 -0.000000 0.000000 -0.000000 -0.000000 0.000000 -0.000000 -0.000000 0.000000 -0.000000 -0.000000 0.000000 -0.000000 -0.000000 0.000000 -0.000000 -0.000000 0.000000 -0.000000 -0.000000 0.000000 -0.000000 -0.000000 0.000000 -0.000000 -0.000000 0.000000 -0.000000 -0.000000 0.000000 -0.000000 -0.000000 0.000000 -0.000000 -0.000000 0.000000 -0.000000 -0.000000 -0.091586 -8.709465 -0.063618 -54.824006 0.285213 -40.971508 11.705571 -66.122549 13.258982 -50.558478 12.058951 4.470687 17.563625 -5.694017 -12.929225 10.852322 26.148380 8.654094 0.000000 0.000001 0.000000 13.978260 1.203561 -55.006034 0.372674 1.163833 -65.441866 0.000001 -0.000002 0.000004 7.502559 1.175425 -63.755281 1.809500 1.478238 -64.569870 -0.000002 -0.000000 -0.000003 8.574348 2.179115 -75.148999 -0.208030 1.014736 -57.856791 0.000000 -0.000001 0.000000 10.030086 13.637075 -84.750244 0.878815 0.065133 -64.595496 0.000002 -0.000000 0.000001 0.000001 -0.000001 -0.000001 4.835597 7.900902 5.599399 -0.826517 -2.297772 61.813758 11.287210 18.781849 -4.000375 -0.510025 6.876276 5.554236 15.788508 -2.734485 -17.205883 -2.198350 -31.113550 7.361198 0.000001 -0.000000 0.000002 2.371243 -3.658861 8.486748 -2.131700 -2.469831 18.672194 0.000000 -0.000000 0.000003 -1.983645 -5.667148 13.658579 0.267047 -5.081401 26.987162 0.000001 0.000001 -0.000003 -3.231384 -8.564182 11.751472 4.036736 -4.043072 33.257188 0.000001 -0.000002 0.000004 -6.483191 -11.360914 23.256463 10.728486 -2.555666 34.821247 -0.000001 -0.000001 -0.000000 -0.000001 -0.000000 -0.000004 -0.000000 -0.000001 0.000000 -0.000000 -0.000001 0.000000 -0.000000 -0.000001 0.000000 -0.000000 -0.000001 0.000000 -0.000000 -0.000001 0.000000 -0.000000 -0.000001 -0.000000 -0.000001 0.000001 -0.000000 -0.000001 0.000001 -0.000000 0.000001 0.000000 -0.000000 0.000000 0.000001 -0.000000 
